<?xml version="1.0" encoding="UTF-8" standalone="no"?>
<svg width="1280" height="1024">
<!--
    <path style="fill:#49B649" d="M 0 0  1280 0  1280 1024  0 1024"/>
-->

<!--
    <circle cx="340" cy="512" r="140" style="fill:#49B649"/>
-->

<!--
    <circle cx="840" cy="512" r="200" style="fill:#000000"/>
    <circle cx="840" cy="512" r="140" style="fill:#49B649"/>
-->

    <defs>
        <mask id="cut-off-side">
            <path fill="white" d="M 0 0  1280 0  1280 1024  0 1024"/>
            <path fill="black" d="M 340 372  740 372  740 652  340 652"/>
            <circle cx="340" cy="512" r="140" style="fill:black"/>
        </mask>
    </defs>

    <circle mask="url(#cut-off-side)" cx="340" cy="512" r="200" style="fill:#000000"/>

<!--
    <path style="mask:url(#cut-off-side)" stroke="blue" stroke-width="60" fill="none" d="M172,512a170,170 0 1,0 340,0a170,170 0 1,0 -340,0"/>
-->
<!--
    <path fill="green" d="M 340 372  740 372  740 652  340 652"/>
-->


    <circle cx="340" cy="512" r="69" style="fill:#000000"/>

    <path style="fill:#000000" d="M 540 482  740 482  740 542  540 542"/>
    <path style="fill:#000000" d="M 610 412  670 412  670 612  610 612"/>

    <path style="fill:#000000" d="M 840 482  1040 482  1040 542  840 542"/>
    <path style="fill:#000000" d="M 910 412  970 412  970 612  910 612"/>

<!--
    <circle cx="840" cy="512" r="69" style="fill:#000000"/>
-->

<!--
    <path style="fill:#000000" d="M 440 312  840 312  840 372  440 372"/>
    <path style="fill:#000000" d="M 440 652  840 652  840 712  440 712"/>
-->
</svg>
